HIERARCHY
ROOT Hips
{
	OFFSET 0.00000 0.00000 0.00000
	CHANNELS 6 Xposition Yposition Zposition Zrotation Yrotation Xrotation 
	JOINT LHipJoint
	{
		OFFSET 0 0 0
		CHANNELS 3 Zrotation Yrotation Xrotation
		JOINT LeftHip
		{
			OFFSET 1.33213 -1.58186 0.78596
			CHANNELS 3 Zrotation Yrotation Xrotation
			JOINT LeftKnee
			{
				OFFSET 2.29717 -6.31144 0.00000
				CHANNELS 3 Zrotation Yrotation Xrotation
				JOINT LeftAnkle
				{
					OFFSET 2.38430 -6.55082 0.00000
					CHANNELS 3 Zrotation Yrotation Xrotation
					JOINT LeftToe
					{
						OFFSET 0.11863 -0.32594 1.77568
						CHANNELS 3 Zrotation Yrotation Xrotation
						End Site
						{
							OFFSET 0.00000 -0.00000 0.91633
						}
					}
				}
			}
		}
	}
	JOINT RHipJoint
	{
		OFFSET 0 0 0
		CHANNELS 3 Zrotation Yrotation Xrotation
		JOINT RightHip
		{
			OFFSET -1.41575 -1.58186 0.78596
			CHANNELS 3 Zrotation Yrotation Xrotation
			JOINT RightKnee
			{
				OFFSET -2.42012 -6.64922 0.00000
				CHANNELS 3 Zrotation Yrotation Xrotation
				JOINT RightAnkle
				{
					OFFSET -2.47254 -6.79327 0.00000
					CHANNELS 3 Zrotation Yrotation Xrotation
					JOINT RightToe
					{
						OFFSET -0.15219 -0.41813 1.93430
						CHANNELS 3 Zrotation Yrotation Xrotation
						End Site
						{
							OFFSET -0.00000 -0.00000 0.99984
						}
					}
				}
			}
		}
	}
	JOINT lowerback
	{
		OFFSET 0 0 0
		CHANNELS 3 Zrotation Yrotation Xrotation
		JOINT Chest
		{
			OFFSET -0.04717 2.09389 -0.14516
			CHANNELS 3 Zrotation Yrotation Xrotation
			JOINT Chest2
			{
				OFFSET 0.02825 2.09433 -0.11325
				CHANNELS 3 Zrotation Yrotation Xrotation
				JOINT lowerneck
				{
					OFFSET 0 0 0
					CHANNELS 3 Zrotation Yrotation Xrotation
					JOINT Neck
					{
						OFFSET -0.01210 1.39029 0.12448
						CHANNELS 3 Zrotation Yrotation Xrotation
						JOINT Head
						{
							OFFSET 0.09492 1.38365 0.14559
							CHANNELS 3 Zrotation Yrotation Xrotation
							End Site
							{
								OFFSET 0.03402 1.40343 0.03708
							}
						}
					}
				}
				JOINT LeftCollar
				{
					OFFSET 0 0 0
					CHANNELS 3 Zrotation Yrotation Xrotation
					JOINT LeftShoulder
					{
						OFFSET 2.83352 1.10671 -0.20481
CHANNELS 3 Zrotation Xrotation Yrotation
						JOINT LeftElbow
						{
OFFSET 0 -4.771950 -0.000000
CHANNELS 3 Zrotation Xrotation Yrotation
							JOINT LeftWrist
							{
OFFSET 0 -2.984440 0.000000
CHANNELS 3 Zrotation Xrotation Yrotation
								JOINT lhand
								{
									OFFSET 0 0 0
CHANNELS 3 Zrotation Xrotation Yrotation
									JOINT LFingers
									{
OFFSET 0 -0.992280 0.000000
CHANNELS 3 Zrotation Xrotation Yrotation
										End Site
										{
OFFSET 0 -0.800010 0.000000
										}
									}
								}
								JOINT LThumb
								{
OFFSET 0 0.000000 0.000000
CHANNELS 3 Zrotation Xrotation Yrotation
									End Site
									{
OFFSET 0 -0.812220 0.812220
									}
								}
							}
						}
					}
				}
				JOINT RightCollar
				{
					OFFSET 0 0 0
					CHANNELS 3 Zrotation Yrotation Xrotation
					JOINT RightShoulder
					{
						OFFSET -3.23760 1.11106 0.06723
CHANNELS 3 Zrotation Xrotation Yrotation
						JOINT RightElbow
						{
OFFSET 0 -4.620520 0.000000
CHANNELS 3 Zrotation Xrotation Yrotation
							JOINT RightWrist
							{
OFFSET 0 -2.953320 0.000000
CHANNELS 3 Zrotation Xrotation Yrotation
								JOINT rhand
								{
									OFFSET 0 0 0
CHANNELS 3 Zrotation Xrotation Yrotation
									JOINT RFingers
									{
OFFSET 0 -0.990960 0.000000
CHANNELS 3 Zrotation Xrotation Yrotation
										End Site
										{
OFFSET 0 -0.798930 0.000000
										}
									}
								}
								JOINT RThumb
								{
OFFSET 0 0.000000 0.000000
CHANNELS 3 Zrotation Xrotation Yrotation
									End Site
									{
OFFSET 0 -0.811130 0.811130
									}
								}
							}
						}
					}
				}
			}
		}
	}
}
MOTION
Frames: 9
Frame Time: 0.008333333333333333
-1.050550 16.398838 -5.581509 -172.902666 -59.342594 -176.532010 0.000000 0.000000 0.000000 -11.635062 -16.829065 -34.793143 5.487954 13.907203 42.878672 0.235004 3.819088 -11.375773 0.021911 -0.927615 -2.549781 0.000000 0.000000 0.000000 27.770521 -4.028890 -19.189309 -2.154188 -9.180103 26.360343 0.526840 23.763508 -12.836118 -3.233820 -11.064198 32.496686 -0.255960 -0.744775 -10.105156 1.329415 -1.090992 3.143485 1.365724 -0.592195 9.066686 -4.899703 -0.847486 -2.079374 7.441550 -1.912527 11.373847 2.998532 -0.913128 3.830429 0.000000 0.000000 0.000000 0.573199 -5.268106 -24.090561 18.630419 -28.956536 4.850759 8.342438 18.496915 -4.739637 0.000000 0.000000 0.000000 -7.125000 0.000000 0.000000 -15.033320 34.450284 -4.008937 0.000000 0.000000 0.000000 -1.983993 -7.046609 12.544951 -16.332904 -25.969521 -3.790790 -0.482561 26.635304 5.735056 0.000000 0.000000 0.000000 7.125000 0.000000 0.000000 21.500523 34.981537 5.624148
-1.232803 16.395919 -5.716919 -172.834117 -58.911669 -176.407763 0.000000 0.000000 0.000000 -11.182864 -16.946208 -35.104424 4.338792 12.580811 37.845120 0.177854 3.360533 -9.915456 0.086031 -1.874426 -5.159182 0.000000 0.000000 0.000000 27.868383 -4.092074 -18.119207 -2.059093 -8.987400 25.756463 0.533698 24.091113 -13.081233 -3.179601 -10.979692 32.211944 -0.112297 -0.590683 -10.314823 1.200074 -0.891744 3.104795 1.181072 -0.482356 9.136642 -5.008208 -0.628945 -2.204016 7.210102 -1.583749 11.515083 2.959161 -0.761189 3.872603 0.000000 0.000000 0.000000 0.443638 -5.560095 -24.539395 19.102237 -29.545259 5.081277 8.563576 18.178956 -5.106741 0.000000 0.000000 0.000000 -7.125000 0.000000 0.000000 -14.925565 34.819550 -3.840152 0.000000 0.000000 0.000000 -1.714136 -7.526860 14.390066 -16.963290 -26.808590 -4.071149 -0.283806 25.486971 5.529304 0.000000 0.000000 0.000000 7.125000 0.000000 0.000000 21.603299 34.778500 5.769269
-1.418081 16.391955 -5.859252 -172.786102 -58.395462 -176.442280 0.000000 0.000000 0.000000 -10.883602 -16.693152 -35.086088 3.297953 11.136507 32.771044 0.112969 2.571565 -7.803873 0.124020 -2.266864 -6.243857 0.000000 0.000000 0.000000 27.982170 -4.261055 -16.730960 -1.927594 -8.712398 24.900654 0.500280 24.181168 -13.424244 -3.005627 -10.702808 31.285505 -0.050233 -0.368214 -10.398602 1.053000 -0.588802 3.118322 1.043819 -0.326859 9.190426 -4.999698 -0.473610 -2.391193 7.020975 -1.347760 11.633497 2.909585 -0.647495 3.924364 0.000000 0.000000 0.000000 0.362428 -5.848817 -24.938321 19.338811 -29.837471 5.198319 8.773533 17.861724 -5.483038 0.000000 0.000000 0.000000 -7.125000 0.000000 0.000000 -14.828683 35.197672 -3.672671 0.000000 0.000000 0.000000 -1.325938 -7.961142 15.878525 -17.506614 -27.520038 -4.319227 -0.278493 24.619739 5.382520 0.000000 0.000000 0.000000 7.125000 0.000000 0.000000 21.570017 34.641760 5.836351
-1.609410 16.389574 -6.007279 -172.736581 -57.798431 -176.562472 0.000000 0.000000 0.000000 -10.680516 -16.113901 -34.861123 2.410421 9.643976 27.855326 0.061881 1.429383 -5.417269 0.095328 -1.987805 -5.472008 0.000000 0.000000 0.000000 28.092484 -4.388005 -15.117866 -1.784772 -8.401192 23.940390 0.442811 24.137622 -13.829646 -2.829377 -10.412905 30.325221 -0.090102 -0.169818 -10.465139 0.959188 -0.309021 3.149981 1.017306 -0.190700 9.257724 -4.847021 -0.263534 -2.436570 6.654716 -1.022329 11.607219 2.784427 -0.494379 3.903003 0.000000 0.000000 0.000000 0.161030 -6.023429 -24.849154 19.389725 -29.900096 5.223713 8.837713 17.895400 -5.656809 0.000000 0.000000 0.000000 -7.125000 0.000000 0.000000 -14.810618 35.370858 -3.603412 0.000000 0.000000 0.000000 -0.975545 -8.359268 17.319920 -17.925015 -28.060630 -4.514136 -0.428534 24.018145 5.291971 0.000000 0.000000 0.000000 7.125000 0.000000 0.000000 21.430008 34.566089 5.835774
-1.811097 16.386783 -6.153265 -172.813609 -57.193727 -176.620745 0.000000 0.000000 0.000000 -10.701191 -15.347128 -34.527002 1.712712 8.215732 23.385586 0.031076 0.179904 -3.403106 0.083573 -1.864640 -5.131734 0.000000 0.000000 0.000000 28.057404 -4.401615 -13.337714 -1.636304 -8.061948 22.903259 0.394664 24.001142 -14.080061 -2.773904 -10.319750 30.018370 -0.171210 -0.045901 -10.558448 0.873437 -0.123867 3.185034 1.005899 -0.103143 9.346973 -4.988131 0.003706 -2.380094 6.418037 -0.609749 11.439721 2.750443 -0.305573 3.818817 0.000000 0.000000 0.000000 0.057572 -5.983678 -24.664920 19.409022 -29.923787 5.233361 8.719702 17.908813 -6.132482 0.000000 0.000000 0.000000 -7.125000 0.000000 0.000000 -15.001896 35.829048 -3.478698 0.000000 0.000000 0.000000 -0.583135 -8.708634 18.573432 -18.185493 -28.393850 -4.637189 -0.409790 23.986417 4.971546 0.000000 0.000000 0.000000 7.125000 0.000000 0.000000 21.364393 34.266764 5.982615
-2.021440 16.377316 -6.298941 -172.582267 -56.630663 -176.929509 0.000000 0.000000 0.000000 -10.700444 -14.380102 -34.325733 1.212155 6.970213 19.632957 0.010987 -1.023811 -1.903263 0.084331 -1.873371 -5.155780 0.000000 0.000000 0.000000 28.161417 -4.385912 -11.545975 -1.494681 -7.721883 21.873059 0.388336 23.836152 -13.987455 -2.889468 -10.513410 30.656369 0.073241 0.166807 -10.665045 0.705802 0.141932 3.173283 0.738629 0.045527 9.392392 -5.160947 0.174937 -2.365917 6.436467 -0.358587 11.326170 2.793876 -0.186325 3.767483 0.000000 0.000000 0.000000 0.263970 -5.820652 -24.669843 19.283004 -29.768734 5.170675 8.568304 18.045666 -6.771716 0.000000 0.000000 0.000000 -7.125000 0.000000 0.000000 -15.257365 36.443814 -3.305161 0.000000 0.000000 0.000000 -0.039923 -8.836361 19.592443 -18.368002 -28.625765 -4.724235 -0.351013 23.944592 4.595567 0.000000 0.000000 0.000000 7.125000 0.000000 0.000000 21.317249 33.913362 6.164246
-2.237381 16.376159 -6.448495 -172.684841 -56.057737 -176.968668 0.000000 0.000000 0.000000 -11.155418 -13.070603 -34.308405 0.885368 5.995515 16.772113 -0.009198 -2.142048 -0.610966 0.213419 -2.964541 -8.180721 0.000000 0.000000 0.000000 28.065211 -4.496383 -9.808359 -1.372101 -7.412749 20.944353 0.358833 23.663675 -14.067926 -2.890240 -10.515251 30.661884 0.072915 0.380841 -10.792325 0.494315 0.449324 3.141053 0.571048 0.201737 9.429085 -5.135218 0.270907 -2.450356 6.338997 -0.216542 11.372969 2.765731 -0.117624 3.787487 0.000000 0.000000 0.000000 0.387466 -5.623452 -24.122970 18.949329 -29.355555 5.006063 8.298469 18.694699 -6.456974 0.000000 0.000000 0.000000 -7.125000 0.000000 0.000000 -15.411273 36.121449 -3.466558 0.000000 0.000000 0.000000 0.412032 -8.758029 20.631207 -18.572029 -28.883365 -4.822415 -0.249608 23.734426 4.444268 0.000000 0.000000 0.000000 7.125000 0.000000 0.000000 21.358870 33.767009 6.259404
-2.462922 16.357413 -6.596133 -172.999132 -55.494111 -176.792878 0.000000 0.000000 0.000000 -11.750676 -11.993809 -34.293450 0.715373 5.404588 15.066437 -0.023351 -2.867146 0.035181 0.367055 -3.874156 -10.724808 0.000000 0.000000 0.000000 27.825094 -4.562121 -8.174220 -1.282475 -7.176140 20.238480 0.259820 23.412054 -14.614724 -2.656638 -10.117140 29.357088 -0.123670 0.504098 -11.007897 0.332998 0.658927 3.103792 0.551155 0.297225 9.512343 -5.141940 0.412797 -2.565559 6.179862 0.004878 11.345903 2.726666 -0.011906 3.786308 0.000000 0.000000 0.000000 0.429471 -5.346089 -23.162880 18.516814 -28.813548 4.795914 7.666408 19.406684 -5.457338 0.000000 0.000000 0.000000 -7.125000 0.000000 0.000000 -15.717953 35.115054 -3.939707 0.000000 0.000000 0.000000 0.739129 -8.481253 21.739360 -18.841433 -29.221135 -4.953243 -0.023468 23.625843 4.418924 0.000000 0.000000 0.000000 7.125000 0.000000 0.000000 21.527690 33.731423 6.335402
-2.697137 16.336862 -6.742413 -172.802579 -55.067154 -176.951888 0.000000 0.000000 0.000000 -11.367399 -12.165987 -34.024592 0.664145 5.211855 14.513892 -0.013254 -2.400374 -0.467907 0.200788 -2.881271 -7.948555 0.000000 0.000000 0.000000 27.859113 -4.322175 -6.596812 -1.212793 -6.985846 19.673507 0.183314 23.002397 -14.868866 -2.574017 -9.971095 28.883237 -0.011273 0.641121 -11.363431 0.248451 0.834248 3.051100 0.435203 0.391033 9.664285 -5.271789 0.499972 -2.747619 6.189904 0.146573 11.314490 2.757359 0.058601 3.798756 0.000000 0.000000 0.000000 0.481907 -5.039710 -22.442316 17.964173 -28.109753 4.533098 7.617350 20.038397 -5.236179 0.000000 0.000000 0.000000 -7.125000 0.000000 0.000000 -15.712882 34.897947 -4.024558 0.000000 0.000000 0.000000 1.068518 -8.146611 22.403463 -18.984973 -29.400048 -5.023474 0.072067 23.711274 4.232385 0.000000 0.000000 0.000000 7.125000 0.000000 0.000000 21.555906 33.552966 6.445247
